<?xml version="1.0" encoding="UTF-8"?>
<svg xmlns="http://www.w3.org/2000/svg" xmlns:xlink="http://www.w3.org/1999/xlink" width="24px" height="24px" viewBox="0 0 24 24" version="1.1">
<g id="surface1">
<path style=" stroke:none;fill-rule:nonzero;fill:rgb(0%,0%,0%);fill-opacity:1;" d="M 8.828125 0.820312 C 8.203125 0.988281 7.660156 1.425781 7.382812 1.976562 C 7.292969 2.15625 7.210938 2.375 7.191406 2.464844 C 7.164062 2.621094 7.15625 2.625 6.917969 2.625 C 5.628906 2.628906 4.5 3.765625 4.5 5.054688 L 4.5 5.273438 L 4.257812 5.335938 C 3.378906 5.535156 2.671875 6.207031 2.363281 7.125 C 2.230469 7.515625 2.242188 8.269531 2.382812 8.671875 C 2.441406 8.839844 2.515625 9.027344 2.550781 9.09375 C 2.617188 9.207031 2.609375 9.210938 2.28125 9.394531 C 1.375 9.890625 0.75 10.949219 0.75 12 C 0.75 13.050781 1.375 14.109375 2.28125 14.605469 C 2.609375 14.789062 2.617188 14.792969 2.550781 14.90625 C 2.515625 14.972656 2.441406 15.160156 2.382812 15.328125 C 2.242188 15.730469 2.230469 16.484375 2.363281 16.875 C 2.671875 17.789062 3.382812 18.464844 4.257812 18.664062 L 4.5 18.726562 L 4.5 18.945312 C 4.5 20.242188 5.640625 21.375 6.933594 21.375 C 7.15625 21.375 7.164062 21.378906 7.191406 21.535156 C 7.25 21.847656 7.539062 22.335938 7.820312 22.601562 C 9.078125 23.808594 11.113281 23.226562 11.554688 21.53125 C 11.664062 21.125 11.664062 2.875 11.554688 2.46875 C 11.242188 1.257812 9.992188 0.507812 8.828125 0.820312 Z M 10.023438 1.660156 C 10.363281 1.832031 10.515625 1.976562 10.691406 2.304688 L 10.851562 2.601562 L 10.867188 5.046875 L 10.878906 7.5 L 9 7.5 L 9 6.289062 L 9.140625 6.234375 C 9.460938 6.101562 9.75 5.628906 9.75 5.25 C 9.75 4.667969 9.207031 4.125 8.625 4.125 C 8.328125 4.125 8.089844 4.234375 7.851562 4.476562 C 7.519531 4.804688 7.425781 5.160156 7.554688 5.585938 C 7.621094 5.8125 7.914062 6.15625 8.109375 6.234375 L 8.25 6.289062 L 8.25 7.5 L 6.289062 7.5 L 6.234375 7.359375 C 6.101562 7.039062 5.628906 6.75 5.25 6.75 C 4.667969 6.75 4.125 7.292969 4.125 7.875 C 4.125 8.457031 4.667969 9 5.25 9 C 5.628906 9 6.101562 8.710938 6.234375 8.390625 L 6.289062 8.25 L 10.875 8.25 L 10.875 10.125 L 5.480469 10.125 L 5.367188 10.242188 L 5.25 10.355469 L 5.25 12.835938 L 5.109375 12.890625 C 4.789062 13.023438 4.5 13.496094 4.5 13.875 C 4.5 14.457031 5.042969 15 5.625 15 C 6.207031 15 6.75 14.457031 6.75 13.875 C 6.75 13.496094 6.460938 13.023438 6.140625 12.890625 L 6 12.835938 L 6 10.875 L 10.875 10.875 L 10.875 12.75 L 7.730469 12.75 L 7.617188 12.867188 L 7.5 12.980469 L 7.5 15.835938 L 7.359375 15.890625 C 7.039062 16.023438 6.75 16.496094 6.75 16.875 C 6.75 17.253906 7.039062 17.726562 7.359375 17.859375 L 7.5 17.914062 L 7.5 18.59375 C 7.5 19.246094 7.503906 19.273438 7.617188 19.382812 L 7.730469 19.5 L 10.882812 19.5 L 10.867188 20.445312 C 10.851562 21.371094 10.847656 21.402344 10.726562 21.636719 C 10.539062 21.992188 10.398438 22.140625 10.070312 22.316406 C 9.796875 22.460938 9.742188 22.476562 9.375 22.476562 C 9.007812 22.476562 8.953125 22.460938 8.679688 22.316406 C 8.210938 22.0625 7.9375 21.648438 7.890625 21.144531 C 7.855469 20.734375 7.835938 20.675781 7.683594 20.597656 C 7.5625 20.535156 7.503906 20.53125 7.304688 20.582031 C 6.777344 20.703125 6.140625 20.515625 5.75 20.117188 C 5.359375 19.714844 5.164062 19.082031 5.292969 18.582031 C 5.359375 18.324219 5.304688 18.136719 5.140625 18.054688 C 5.085938 18.027344 4.894531 17.996094 4.714844 17.980469 C 4.058594 17.929688 3.5 17.539062 3.203125 16.929688 C 3.03125 16.59375 3.023438 16.550781 3.023438 16.128906 C 3.023438 15.722656 3.039062 15.652344 3.167969 15.375 C 3.25 15.207031 3.378906 14.992188 3.464844 14.886719 C 3.726562 14.558594 3.632812 14.304688 3.203125 14.179688 C 2.375 13.941406 1.78125 13.339844 1.570312 12.539062 C 1.265625 11.367188 1.984375 10.171875 3.195312 9.820312 C 3.632812 9.695312 3.726562 9.441406 3.464844 9.113281 C 3.378906 9.007812 3.25 8.792969 3.167969 8.625 C 3.039062 8.347656 3.023438 8.277344 3.023438 7.875 C 3.023438 7.472656 3.039062 7.398438 3.167969 7.125 C 3.34375 6.757812 3.535156 6.523438 3.835938 6.328125 C 4.101562 6.15625 4.574219 6 4.871094 6 C 5.242188 5.996094 5.386719 5.804688 5.296875 5.429688 C 5.171875 4.902344 5.359375 4.265625 5.757812 3.875 C 6.164062 3.476562 6.78125 3.296875 7.304688 3.417969 C 7.503906 3.46875 7.5625 3.464844 7.683594 3.402344 C 7.835938 3.324219 7.851562 3.277344 7.898438 2.84375 C 7.960938 2.21875 8.40625 1.703125 9.023438 1.542969 C 9.277344 1.472656 9.769531 1.53125 10.023438 1.660156 Z M 8.882812 4.992188 C 9.117188 5.222656 8.953125 5.625 8.625 5.625 C 8.433594 5.625 8.25 5.441406 8.25 5.25 C 8.25 5.058594 8.433594 4.875 8.625 4.875 C 8.714844 4.875 8.8125 4.917969 8.882812 4.992188 Z M 5.507812 7.617188 C 5.742188 7.847656 5.578125 8.25 5.25 8.25 C 5.058594 8.25 4.875 8.066406 4.875 7.875 C 4.875 7.683594 5.058594 7.5 5.25 7.5 C 5.339844 7.5 5.4375 7.542969 5.507812 7.617188 Z M 5.882812 13.617188 C 5.957031 13.6875 6 13.785156 6 13.875 C 6 13.964844 5.957031 14.0625 5.882812 14.132812 C 5.8125 14.207031 5.714844 14.25 5.625 14.25 C 5.535156 14.25 5.4375 14.207031 5.367188 14.132812 C 5.292969 14.0625 5.25 13.964844 5.25 13.875 C 5.25 13.785156 5.292969 13.6875 5.367188 13.617188 C 5.4375 13.542969 5.535156 13.5 5.625 13.5 C 5.714844 13.5 5.8125 13.542969 5.882812 13.617188 Z M 10.875 16.125 L 10.875 18.75 L 8.25 18.75 L 8.25 17.914062 L 8.390625 17.859375 C 8.710938 17.726562 9 17.253906 9 16.875 C 9 16.496094 8.710938 16.023438 8.390625 15.890625 L 8.25 15.835938 L 8.25 13.5 L 10.875 13.5 Z M 8.132812 16.617188 C 8.367188 16.847656 8.203125 17.25 7.875 17.25 C 7.785156 17.25 7.6875 17.207031 7.617188 17.132812 C 7.542969 17.0625 7.5 16.964844 7.5 16.875 C 7.5 16.785156 7.542969 16.6875 7.617188 16.617188 C 7.6875 16.542969 7.785156 16.5 7.875 16.5 C 7.964844 16.5 8.0625 16.542969 8.132812 16.617188 Z M 8.132812 16.617188 "/>
<path style=" stroke:none;fill-rule:nonzero;fill:rgb(0%,0%,0%);fill-opacity:1;" d="M 2.25 12 L 2.25 12.375 L 3 12.375 L 3 11.625 L 2.25 11.625 Z M 2.25 12 "/>
<path style=" stroke:none;fill-rule:nonzero;fill:rgb(0%,0%,0%);fill-opacity:1;" d="M 4.5 16.5 L 4.5 16.875 L 5.25 16.875 L 5.25 16.125 L 4.5 16.125 Z M 4.5 16.5 "/>
<path style=" stroke:none;fill-rule:nonzero;fill:rgb(0%,0%,0%);fill-opacity:1;" d="M 14.066406 0.824219 C 13.273438 1.035156 12.65625 1.667969 12.445312 2.46875 C 12.335938 2.875 12.335938 21.125 12.445312 21.53125 C 12.757812 22.738281 13.988281 23.484375 15.15625 23.179688 C 15.554688 23.078125 15.875 22.894531 16.179688 22.601562 C 16.460938 22.335938 16.75 21.847656 16.808594 21.535156 C 16.835938 21.378906 16.84375 21.375 17.082031 21.375 C 18.371094 21.371094 19.5 20.234375 19.5 18.945312 L 19.5 18.726562 L 19.75 18.664062 C 20.617188 18.464844 21.328125 17.789062 21.636719 16.875 C 21.769531 16.484375 21.757812 15.730469 21.617188 15.328125 C 21.558594 15.160156 21.484375 14.972656 21.449219 14.90625 C 21.382812 14.792969 21.390625 14.789062 21.71875 14.605469 C 22.625 14.113281 23.25 13.046875 23.25 12 C 23.25 10.949219 22.625 9.890625 21.71875 9.394531 C 21.390625 9.210938 21.382812 9.207031 21.449219 9.09375 C 21.484375 9.027344 21.558594 8.839844 21.617188 8.671875 C 21.757812 8.269531 21.769531 7.515625 21.636719 7.125 C 21.328125 6.210938 20.617188 5.535156 19.75 5.335938 L 19.5 5.273438 L 19.5 5.054688 C 19.5 3.765625 18.371094 2.628906 17.082031 2.625 C 16.84375 2.625 16.835938 2.621094 16.808594 2.464844 C 16.789062 2.375 16.707031 2.15625 16.617188 1.976562 C 16.15625 1.058594 15.050781 0.558594 14.066406 0.824219 Z M 15.332031 1.691406 C 15.789062 1.9375 16.0625 2.351562 16.109375 2.855469 C 16.144531 3.265625 16.164062 3.324219 16.316406 3.402344 C 16.4375 3.464844 16.496094 3.46875 16.695312 3.417969 C 17.21875 3.296875 17.835938 3.476562 18.242188 3.875 C 18.636719 4.265625 18.835938 4.917969 18.707031 5.417969 C 18.640625 5.675781 18.695312 5.863281 18.859375 5.945312 C 18.914062 5.972656 19.105469 6.003906 19.285156 6.019531 C 19.945312 6.070312 20.5 6.453125 20.804688 7.070312 C 20.96875 7.40625 20.976562 7.449219 20.976562 7.871094 C 20.976562 8.277344 20.960938 8.347656 20.832031 8.625 C 20.75 8.792969 20.621094 9.007812 20.535156 9.113281 C 20.273438 9.441406 20.367188 9.695312 20.804688 9.820312 C 21.214844 9.941406 21.582031 10.15625 21.859375 10.449219 C 23.058594 11.703125 22.492188 13.6875 20.796875 14.179688 C 20.367188 14.304688 20.273438 14.558594 20.535156 14.886719 C 20.621094 14.992188 20.75 15.207031 20.832031 15.375 C 20.960938 15.652344 20.976562 15.722656 20.976562 16.125 C 20.976562 16.527344 20.960938 16.597656 20.828125 16.882812 C 20.511719 17.554688 19.835938 17.996094 19.125 18 C 18.757812 18.003906 18.613281 18.195312 18.703125 18.570312 C 18.828125 19.09375 18.648438 19.710938 18.25 20.117188 C 17.859375 20.515625 17.222656 20.703125 16.695312 20.582031 C 16.496094 20.53125 16.4375 20.535156 16.316406 20.597656 C 16.164062 20.675781 16.148438 20.722656 16.101562 21.15625 C 16.054688 21.660156 15.777344 22.070312 15.320312 22.316406 C 15.046875 22.460938 14.992188 22.476562 14.625 22.476562 C 14.257812 22.476562 14.203125 22.460938 13.929688 22.316406 C 13.601562 22.140625 13.460938 21.992188 13.273438 21.636719 L 13.148438 21.398438 L 13.132812 17.445312 L 13.121094 13.5 L 14.625 13.5 L 14.625 17.710938 L 14.484375 17.765625 C 14.164062 17.898438 13.875 18.371094 13.875 18.75 C 13.875 19.332031 14.417969 19.875 15 19.875 C 15.582031 19.875 16.125 19.332031 16.125 18.75 C 16.125 18.371094 15.835938 17.898438 15.515625 17.765625 L 15.375 17.710938 L 15.375 13.5 L 18.375 13.5 L 18.375 15.085938 L 18.234375 15.140625 C 17.914062 15.273438 17.625 15.746094 17.625 16.125 C 17.625 16.707031 18.167969 17.25 18.75 17.25 C 19.332031 17.25 19.875 16.707031 19.875 16.125 C 19.875 15.746094 19.585938 15.273438 19.265625 15.140625 L 19.125 15.085938 L 19.125 12.980469 L 19.007812 12.867188 L 18.894531 12.75 L 13.125 12.75 L 13.125 10.875 L 17.710938 10.875 L 17.765625 11.015625 C 17.898438 11.335938 18.371094 11.625 18.75 11.625 C 19.332031 11.625 19.875 11.082031 19.875 10.5 C 19.875 9.917969 19.332031 9.375 18.75 9.375 C 18.371094 9.375 17.898438 9.664062 17.765625 9.984375 L 17.710938 10.125 L 13.125 10.125 L 13.125 8.25 L 16.644531 8.25 L 16.757812 8.132812 C 16.875 8.019531 16.875 8.011719 16.875 7.15625 L 16.875 6.289062 L 17.015625 6.234375 C 17.335938 6.101562 17.625 5.628906 17.625 5.25 C 17.625 4.667969 17.082031 4.125 16.5 4.125 C 15.917969 4.125 15.375 4.667969 15.375 5.25 C 15.375 5.628906 15.664062 6.101562 15.984375 6.234375 L 16.125 6.289062 L 16.125 7.5 L 13.121094 7.5 L 13.132812 5.046875 L 13.148438 2.601562 L 13.265625 2.367188 C 13.460938 1.964844 13.84375 1.65625 14.273438 1.542969 C 14.5625 1.460938 15.027344 1.53125 15.332031 1.691406 Z M 16.757812 4.992188 C 16.832031 5.0625 16.875 5.160156 16.875 5.25 C 16.875 5.339844 16.832031 5.4375 16.757812 5.507812 C 16.6875 5.582031 16.589844 5.625 16.5 5.625 C 16.410156 5.625 16.3125 5.582031 16.242188 5.507812 C 16.167969 5.4375 16.125 5.339844 16.125 5.25 C 16.125 5.160156 16.167969 5.0625 16.242188 4.992188 C 16.3125 4.917969 16.410156 4.875 16.5 4.875 C 16.589844 4.875 16.6875 4.917969 16.757812 4.992188 Z M 19.007812 10.242188 C 19.082031 10.3125 19.125 10.410156 19.125 10.5 C 19.125 10.589844 19.082031 10.6875 19.007812 10.757812 C 18.9375 10.832031 18.839844 10.875 18.75 10.875 C 18.660156 10.875 18.5625 10.832031 18.492188 10.757812 C 18.417969 10.6875 18.375 10.589844 18.375 10.5 C 18.375 10.410156 18.417969 10.3125 18.492188 10.242188 C 18.5625 10.167969 18.660156 10.125 18.75 10.125 C 18.839844 10.125 18.9375 10.167969 19.007812 10.242188 Z M 19.007812 15.867188 C 19.242188 16.097656 19.078125 16.5 18.75 16.5 C 18.558594 16.5 18.375 16.316406 18.375 16.125 C 18.375 15.933594 18.558594 15.75 18.75 15.75 C 18.839844 15.75 18.9375 15.792969 19.007812 15.867188 Z M 15.257812 18.492188 C 15.492188 18.722656 15.328125 19.125 15 19.125 C 14.808594 19.125 14.625 18.941406 14.625 18.75 C 14.625 18.558594 14.808594 18.375 15 18.375 C 15.089844 18.375 15.1875 18.417969 15.257812 18.492188 Z M 15.257812 18.492188 "/>
<path style=" stroke:none;fill-rule:nonzero;fill:rgb(0%,0%,0%);fill-opacity:1;" d="M 17.625 7.875 L 17.625 8.25 L 18.375 8.25 L 18.375 7.5 L 17.625 7.5 Z M 17.625 7.875 "/>
<path style=" stroke:none;fill-rule:nonzero;fill:rgb(0%,0%,0%);fill-opacity:1;" d="M 20.625 12 L 20.625 12.375 L 21.375 12.375 L 21.375 11.625 L 20.625 11.625 Z M 20.625 12 "/>
</g>
</svg>
